<svg width="320" height="73" viewBox="0 0 320 73" fill="none" xmlns="http://www.w3.org/2000/svg">
<g clip-path="url(#clip0_1_829)">
<path d="M86.4092 44.412V27.1586C86.4092 22.8587 86.0508 21.094 84.3393 17.887V17.7795H94.4471V17.887C93.0492 20.5296 92.3771 22.8587 92.3771 27.1586V44.2597C92.3771 52.7072 95.9525 54.7228 101.499 54.7228C108.56 54.7228 110.98 50.0108 110.98 43.7939V28.0903C110.98 23.4231 110.308 21.506 107.252 17.878V17.7705H117.414V17.878C114.403 21.506 113.686 23.4231 113.686 28.0903V43.7401C113.686 51.1485 110.469 57.5267 100.567 57.5267C92.8969 57.5267 86.4182 53.7464 86.4182 44.412H86.4092Z" fill="white"/>
<path d="M119.367 56.649C120.353 53.6928 120.613 51.1039 120.613 46.3382V40.0675C120.613 36.4932 119.475 34.5224 118.122 33.0712V32.9637L125.738 30.115V35.2928L125.944 35.3465C128.274 32.4441 130.873 30.3748 134.654 30.3748C139.529 30.3748 142.226 33.4295 142.226 38.1504V46.2844C142.226 51.1576 142.334 53.6928 143.472 56.649V56.7565H135.649V56.649C136.635 53.6928 136.841 50.8441 136.841 46.3382V39.4494C136.841 36.4932 135.497 34.0118 131.912 34.0118C129.627 34.0118 127.504 34.9972 125.953 36.968V46.2934C125.953 51.0053 126.061 53.7017 127.145 56.6579V56.7654H119.367V56.6579V56.649Z" fill="white"/>
<path d="M168.858 50.7992C168.858 50.7992 168.894 50.8709 168.885 50.9067C167.317 54.6602 163.804 57.5268 158.49 57.5268C151.438 57.5268 146.725 52.349 146.725 44.4121C146.725 36.4752 153.257 30.3657 160.309 30.3657C163.956 30.3657 166.062 31.1092 167.317 31.7184C167.37 31.7453 167.415 31.799 167.424 31.8617L168.177 37.8995C168.177 37.9443 168.15 37.9891 168.105 38.007L167.63 38.1235C167.63 38.1235 167.55 38.1235 167.523 38.0787C166.053 35.6421 162.711 31.9692 159.476 31.9692C155.022 31.9692 152.119 35.9108 152.119 42.2263C152.119 49.1688 155.802 52.9492 161.349 52.9492C163.911 52.9492 166.474 52.2415 168.284 50.3692C168.32 50.3334 168.374 50.3334 168.419 50.3692L168.876 50.7813L168.858 50.7992Z" fill="white"/>
<path d="M171.645 56.6489C172.63 53.6927 172.836 51.1038 172.836 46.3381V25.8777C172.836 22.3572 171.698 20.3326 170.399 18.9351V18.7829L178.177 16.0327V35.3464H178.231C180.561 32.444 183.159 30.3747 186.941 30.3747C191.815 30.3747 194.557 33.4294 194.557 38.1503V46.3381C194.557 51.1575 194.665 53.6927 195.749 56.6489V56.7564H187.926V56.6489C188.912 53.6927 189.172 50.844 189.172 46.3381V39.4493C189.172 36.4931 187.774 34.0117 184.199 34.0117C181.869 34.0117 179.79 35.0508 178.186 37.0216V46.347C178.186 51.0142 178.392 53.7017 179.485 56.6578V56.7653H171.663V56.6578L171.645 56.6489Z" fill="white"/>
<path d="M199.253 52.5549C199.253 46.75 207.237 42.6831 213.097 41.6977V39.2431C213.097 35.5613 211.798 33.8503 208.07 33.8503C205.812 33.8503 203.097 34.4595 200.83 36.0361C200.794 36.063 200.74 36.054 200.714 36.0272L200.31 35.624C200.31 35.624 200.274 35.5345 200.301 35.4986C202.542 32.5245 206.404 30.3835 210.929 30.3835C216.735 30.3835 218.501 33.8593 218.501 37.8457V51.686C218.501 53.1372 219.02 54.1226 220.571 54.1226C221.53 54.1226 222.345 53.7732 223.259 52.9849C223.295 52.958 223.349 52.9491 223.384 52.9849L223.734 53.2984C223.734 53.2984 223.779 53.3701 223.752 53.4149C222.856 55.1707 221.099 57.3923 217.82 57.3923C214.97 57.3923 213.519 55.7888 213.205 53.7105C211.493 55.7351 208.644 57.5446 205.167 57.5446C201.69 57.5446 199.262 55.7351 199.262 52.5728L199.253 52.5549ZM208.276 54.3197C210.302 54.3197 212.165 53.4418 213.097 52.4026V43.0414C208.689 44.0268 204.289 47.3682 204.289 50.9514C204.289 53.0207 205.794 54.3197 208.276 54.3197V54.3197Z" fill="white"/>
<path d="M226.781 56.6489C227.506 53.6927 228.026 51.05 228.026 46.338V40.2734C228.026 36.8514 226.888 34.7821 225.535 33.3846V32.9725L233.358 30.1238V46.2933C233.358 50.9067 233.465 53.7016 234.55 56.6578V56.7653H226.772V56.6578L226.781 56.6489ZM227.193 21.0044C227.193 19.1412 228.591 17.6899 230.41 17.6899C232.229 17.6899 233.671 19.1412 233.671 21.0044C233.671 22.7692 232.22 24.2204 230.41 24.2204C228.6 24.2204 227.193 22.7692 227.193 21.0044V21.0044Z" fill="white"/>
<path d="M239.155 56.649C240.141 53.6928 240.401 51.1039 240.401 46.3382V40.0675C240.401 36.4932 239.263 34.5224 237.91 33.0712V32.9637L245.527 30.115V35.2928L245.733 35.3465C248.063 32.4441 250.661 30.3748 254.443 30.3748C259.317 30.3748 262.015 33.4295 262.015 38.1504V46.2844C262.015 51.1576 262.122 53.6928 263.26 56.649V56.7565H255.437V56.649C256.423 53.6928 256.629 50.8441 256.629 46.3382V39.4494C256.629 36.4932 255.285 34.0118 251.701 34.0118C249.416 34.0118 247.292 34.9972 245.742 36.968V46.2934C245.742 51.0053 245.849 53.7017 246.933 56.6579V56.7654H239.155V56.6579V56.649Z" fill="white"/>
<path d="M288.458 49.9124L288.951 50.2797C288.951 50.2797 288.996 50.3514 288.978 50.3962C287.356 54.3019 283.843 57.5269 278.431 57.5269C271.325 57.5269 266.513 52.1878 266.513 44.4659C266.513 35.8123 272.678 30.3748 278.798 30.3748C284.918 30.3748 289.372 36.1259 288.852 41.4112H271.952V42.1905C271.952 49.3391 275.734 52.9672 281.227 52.9672C284.049 52.9672 286.46 51.9997 288.324 49.9214C288.359 49.8856 288.413 49.8766 288.449 49.9124H288.458ZM272.015 39.96L282.562 39.7181V39.1358C282.562 34.5851 281.065 32.5068 278.108 32.5068C274.721 32.5068 272.499 35.6063 272.015 39.951V39.96Z" fill="white"/>
<path d="M312.177 31.3063V25.9314C312.177 22.4109 311.039 20.3326 309.74 18.9889V18.8814L317.563 16.0327V45.2989C317.563 52.6536 318.181 53.9525 320 55.556V55.6635L312.383 57.3745V52.1429H312.231C310.672 54.8931 307.518 57.5357 303.001 57.5357C296.523 57.5357 292.687 52.3042 292.687 45.1019C292.687 37.3262 297.508 30.3836 306.738 30.3836C308.808 30.3836 310.681 30.742 312.177 31.3153V31.3063ZM305.752 53.8002C308.548 53.8002 310.726 52.5013 312.177 50.5394V37.6397C311.192 33.2861 308.494 31.9871 306.012 31.9871C301.397 31.9871 298.44 36.6991 298.44 43.2833C298.44 49.8676 300.878 53.8002 305.752 53.8002V53.8002Z" fill="white"/>
<path d="M35.8433 72.6123C55.639 72.6123 71.6866 56.5695 71.6866 36.7798C71.6866 16.99 55.639 0.947266 35.8433 0.947266C16.0476 0.947266 0 16.99 0 36.7798C0 56.5695 16.0476 72.6123 35.8433 72.6123Z" fill="white"/>
<path d="M27.5545 49.411C24.472 54.0782 22.1064 58.5841 20.3052 62.6242C24.8394 65.3565 30.1621 66.9241 35.8433 66.9241C52.5015 66.9241 66.0054 53.4242 66.0054 36.7711C66.0054 36.2246 65.9875 35.6782 65.9606 35.1317H62.5555C51.4441 35.1317 37.1605 34.854 27.5545 49.402V49.411Z" fill="#0095D6"/>
<path d="M65.6828 32.3903H48.5318C27.8054 32.3903 15.9592 41.5634 9.25652 51.0322C6.97151 46.786 5.68115 41.9307 5.68115 36.7798C5.68115 20.1266 19.1851 6.62671 35.8433 6.62671C51.005 6.62671 63.5591 17.8154 65.6828 32.3903Z" fill="#002851"/>
<path d="M36.0763 14.3397L36.6139 15.9969C37.2054 17.7975 38.6212 19.2129 40.4223 19.8042L42.08 20.3416C42.2593 20.4043 42.2593 20.6552 42.08 20.7089L40.4223 21.2464C38.6212 21.8377 37.2054 23.253 36.6139 25.0536L36.0763 26.7109C36.0136 26.89 35.7627 26.89 35.7089 26.7109L35.1713 25.0536C34.5798 23.253 33.164 21.8377 31.3629 21.2464L29.7052 20.7089C29.5259 20.6462 29.5259 20.3954 29.7052 20.3416L31.3629 19.8042C33.164 19.2129 34.5798 17.7975 35.1713 15.9969L35.7089 14.3397C35.7716 14.1605 36.0225 14.1605 36.0763 14.3397V14.3397Z" fill="white"/>
</g>
<defs>
<clipPath id="clip0_1_829">
<rect width="320" height="71.665" fill="white" transform="translate(0 0.947266)"/>
</clipPath>
</defs>
</svg>
