<svg width="16" height="16" viewBox="0 0 16 16" fill="none" xmlns="http://www.w3.org/2000/svg">
<path d="M0.167637 7.76717L2.26617 7.0842C4.55099 6.33915 6.33912 4.55103 7.08417 2.2662L7.76716 0.167637C7.84167 -0.0558789 8.16452 -0.0558789 8.23282 0.167637L8.91577 2.2662C9.66082 4.55103 11.449 6.33915 13.7338 7.0842L15.8323 7.76717C16.0559 7.84168 16.0559 8.16453 15.8323 8.23283L13.7338 8.9158C11.449 9.66085 9.66082 11.449 8.91577 13.7338L8.23282 15.8324C8.15831 16.0559 7.83546 16.0559 7.76716 15.8324L7.08417 13.7338C6.33912 11.449 4.55099 9.66085 2.26617 8.9158L0.167637 8.23283C-0.0558789 8.15832 -0.0558789 7.83547 0.167637 7.76717Z" fill="#C98F00"/>
</svg>
