<svg width="33" height="33" viewBox="0 0 33 33" fill="none" xmlns="http://www.w3.org/2000/svg">
<path fill-rule="evenodd" clip-rule="evenodd" d="M29.3333 33H3.66667C1.64162 33 0 31.3584 0 29.3333V3.66667C0 1.64162 1.64162 0 3.66667 0H29.3333C31.3584 0 33 1.64162 33 3.66667V29.3333C33 31.3584 31.3584 33 29.3333 33ZM23.5197 28.4167H28.4167V18.3568C28.4167 14.1004 26.0039 12.0423 22.6337 12.0423C19.2619 12.0423 17.843 14.668 17.843 14.668V12.5278H13.1236V28.4167H17.843V20.076C17.843 17.8411 18.8717 16.5112 20.8407 16.5112C22.6507 16.5112 23.5197 17.7892 23.5197 20.076V28.4167ZM4.58333 7.5153C4.58333 9.13443 5.88594 10.4473 7.49345 10.4473C9.10096 10.4473 10.4028 9.13443 10.4028 7.5153C10.4028 5.89616 9.10096 4.58333 7.49345 4.58333C5.88594 4.58333 4.58333 5.89616 4.58333 7.5153ZM9.97764 28.4167H5.05659V12.5278H9.97764V28.4167Z" fill="white"/>
</svg>
