<?xml version="1.0" encoding="UTF-8"?>
<svg id="Layer_1" data-name="Layer 1" xmlns="http://www.w3.org/2000/svg" viewBox="0 0 27 27">
  <defs>
    <style>
      .cls-1 {
        fill: #fff;
      }
    </style>
  </defs>
  <rect class="cls-1" width="27" height="27"/>
  <path d="M15.63,13.97c-1.36.83-1.89,1.99-2.05,2.42-.02.06-.11.06-.13,0-.91-2.07-2.3-2.66-2.8-2.83-.06-.02-.07-.11,0-.13,2.05-.9,2.65-2.29,2.82-2.79.02-.06.11-.07.13,0,.29.7.73,1.66,2.06,2.43.37.22.85.15,1.15-.16l1.31-1.31,3.38-3.38c.06-.06.06-.15,0-.2l-2.49-2.49c-.06-.06-.15-.06-.2,0l-3.25,3.25s-.12.01-.12-.05v-4.6c0-.08-.06-.14-.14-.14h-3.52c-.08,0-.14.06-.14.14v4.6c0,.06-.08.1-.12.05l-3.25-3.26c-.06-.06-.15-.06-.2,0l-2.49,2.49c-.06.06-.06.15,0,.2l3.25,3.26s.01.12-.05.12h-4.6c-.08,0-.14.06-.14.14v3.52c0,.08.06.14.14.14h4.6c.06,0,.1.08.05.12l-3.25,3.25c-.06.06-.06.15,0,.2l2.49,2.49c.06.06.15.06.2,0l3.25-3.26s.12-.01.12.05v4.6c0,.08.06.14.14.14h3.52c.08,0,.14-.06.14-.14v-4.6c0-.06.08-.1.12-.05l3.25,3.25c.06.06.15.06.2,0l2.49-2.49c.06-.06.06-.15,0-.2l-3.38-3.38-1.3-1.3c-.31-.31-.8-.37-1.18-.14h0Z"/>
</svg>