<svg width="30" height="34" viewBox="0 0 30 34" fill="none" xmlns="http://www.w3.org/2000/svg">
<path d="M13.4422 33.0856V24.6668C13.4422 24.5011 13.2415 24.4182 13.1235 24.5366L7.18725 30.4925C7.04563 30.6346 6.7978 30.6346 6.65618 30.4925L2.96223 26.7863C2.82061 26.6442 2.82061 26.3956 2.96223 26.2535L8.89851 20.2976C9.01652 20.1792 8.93391 19.9779 8.76869 19.9779H0.377655C0.165224 19.9779 0 19.8122 0 19.599V14.3654C0 14.1523 0.165224 13.9865 0.377655 13.9865H8.76869C8.93391 13.9865 9.01652 13.7853 8.89851 13.6668L2.96223 7.71098C2.82061 7.56889 2.82061 7.32024 2.96223 7.17815L6.65618 3.47201C6.7978 3.32992 7.04563 3.32992 7.18725 3.47201L13.1235 9.42788C13.2415 9.54629 13.4422 9.4634 13.4422 9.29763V0.878902C13.4422 0.66577 13.6074 0.5 13.8198 0.5H19.0362C19.2486 0.5 19.4138 0.66577 19.4138 0.878902V9.29763C19.4138 9.4634 19.6145 9.54629 19.7325 9.42788L25.6688 3.47201C25.8104 3.32992 26.0582 3.32992 26.1998 3.47201L29.8938 7.17815C30.0354 7.32024 30.0354 7.56889 29.8938 7.71098L21.8332 15.7982C21.609 16.0231 21.3021 16.1297 20.9835 16.106C20.8301 16.0942 20.6884 16.0468 20.5586 15.9758C18.0685 14.6023 17.3485 12.8498 16.8293 11.571L16.605 11.0145C16.546 10.8606 16.3218 10.8606 16.2628 11.0145C15.9795 11.7131 15.4013 13.0748 14.9882 13.6195C13.6664 15.3837 11.5421 16.402 10.5744 16.7928C10.4091 16.852 10.4209 17.0888 10.5744 17.148C11.7427 17.5506 14.5633 18.8767 16.074 22.5474L16.2274 22.9144C16.2982 23.0684 16.5224 23.0684 16.5814 22.9144C16.9473 21.8843 18.0566 19.4569 20.5704 18.0124C20.7238 17.9295 20.9009 17.8821 21.0779 17.8821C21.3611 17.8821 21.6326 18.0005 21.8332 18.2018L24.2762 20.6529L29.8938 26.289C30.0354 26.4311 30.0354 26.6798 29.8938 26.8218L26.1998 30.528C26.0582 30.6701 25.8104 30.6701 25.6688 30.528L19.7325 24.5721C19.6145 24.4537 19.4138 24.5366 19.4138 24.7024V33.1211C19.4138 33.3342 19.2486 33.5 19.0362 33.5H13.8198C13.6074 33.5 13.4422 33.3342 13.4422 33.1211V33.0856Z" fill="white"/>
</svg>
