<svg version="1.2" xmlns="http://www.w3.org/2000/svg" viewBox="0 0 197 198" width="32" height="32">
	<title>New Project</title>
	<style>
		.s0 { fill: #000000 } 
		.s1 { fill: #f7961d;stroke: #f7961d;stroke-linejoin: round;stroke-width: 12 } 
		.s2 { fill: #f7961d } 
	</style>
	<path id="Shape 1" fill-rule="evenodd" class="s0" d="m98.8 197.5c-54.7 0-98.8-44.1-98.8-98.7 0-54.7 44.1-98.8 98.8-98.8 54.6 0 98.7 44.1 98.7 98.8 0 54.6-44.1 98.7-98.7 98.7z"/>
	<path id="BTC" class="s1" d="m42.5 98.7q0 11.7 4.4 22.4 4.5 10.7 12.3 18.9 8 8 18.6 12.9 10.7 4.9 23.2 4.9v14q-15.3 0-28.7-5.7-13.3-5.8-23.2-15.6-9.8-9.9-15.6-23.2-5.7-13.4-5.7-28.6 0-15.2 5.7-28.5 5.8-13.3 15.6-23.2 9.9-9.9 23.2-15.6 13.4-5.8 28.7-5.8 17.9 0 33.1 8.1 15.4 8 25.4 21.7l-11.4 8.8q-4.4-5.9-9.9-10.4-5.5-4.5-11.7-7.4-6-3.1-12.7-4.7-6.4-1.5-12.8-1.5-11.7 0-22.5 4.9-10.5 4.6-18.5 12.6-8 8-12.9 18.7-4.6 10.6-4.6 22.3z"/>
	<path id="B" fill-rule="evenodd" class="s2" d="m102.5 142c-23.5 0-42.5-19-42.5-42.5 0-23.5 19-42.5 42.5-42.5 23.5 0 42.5 19 42.5 42.5 0 23.5-19 42.5-42.5 42.5zm-5-68.4c-0.1 0.1-0.4 1.1-0.7 2.1l-0.5 2-7.1-1.9-1.8 6.5 4.9 1.4-7.3 26.1-4.9-1.4-1.8 6.6 7.1 2c-0.8 3-1.1 3.9-1.1 4.1 0 0.2 0.8 0.4 3.3 1.1 2.4 0.7 3.3 0.9 3.4 0.7 0.1-0.1 0.4-1 0.7-2.1l0.5-1.9 5 1.4-1.1 4.3 6.7 1.9 1.2-4.3c2.1 0.4 3.4 0.5 4.4 0.5 0.9 0.1 2.5-0.1 3.6-0.3 1.5-0.3 2.3-0.6 3.5-1.3 0.9-0.5 2-1.2 2.4-1.7 0.4-0.4 1.1-1.3 1.5-2.1 0.5-0.8 1-1.9 1.2-2.7 0.2-0.7 0.4-1.9 0.5-2.5 0-0.6-0.1-1.8-0.2-2.7-0.2-1-0.5-2-1-2.8-0.5-1-1.1-1.8-2.1-2.6-0.7-0.7-1.5-1.3-1.7-1.4-0.1 0 0.3-0.2 1-0.4 0.7-0.2 1.6-0.5 2-0.7 0.5-0.2 1.3-0.7 1.8-1.1 0.5-0.4 1.2-1.2 1.6-1.8 0.5-0.8 0.8-1.6 1.2-2.8 0.2-1 0.5-2.3 0.5-2.9 0-0.7-0.1-1.6-0.2-2.1-0.1-0.5-0.5-1.5-0.9-2.2-0.4-0.8-1.1-1.7-1.7-2.2-0.6-0.5-1.6-1.2-2.3-1.6-0.7-0.4-1.9-1-2.7-1.3l-1.5-0.6 1.2-4.3-6.8-1.9-1.1 4.3-5.1-1.4c0.8-2.7 1.1-3.6 1.1-3.9 0-0.4-0.1-0.4-3.3-1.3-1.9-0.6-3.3-0.9-3.4-0.8zm3.8 12.6c0.1 0 2.4 0.7 5.2 1.5 4.1 1.2 5.4 1.7 6.1 2.1 0.5 0.4 1.2 1 1.5 1.4 0.3 0.4 0.6 1.1 0.7 1.6q0.1 0.8-0.3 2.2c-0.3 1-0.5 1.5-1 2-0.3 0.4-1 0.9-1.4 1-0.4 0.2-1.2 0.4-1.8 0.4-0.7 0-2.1-0.3-11.5-2.9l1.2-4.6c0.7-2.5 1.3-4.6 1.3-4.7zm-4.3 15.2l12.3 3.5 0.9 0.8c0.4 0.4 1 1.1 1.3 1.5 0.3 0.5 0.5 1.3 0.5 1.9 0.1 0.7 0 1.6-0.3 2.5-0.2 0.9-0.5 1.5-0.9 2-0.4 0.4-0.9 0.9-1.3 1.1-0.4 0.2-1.1 0.5-1.7 0.6-0.7 0.1-1.7 0-2.8-0.1-1-0.2-3.8-0.9-10.9-3z"/>
</svg>