<svg width="47" height="37" viewBox="0 0 47 37" fill="none" xmlns="http://www.w3.org/2000/svg">
<g clip-path="url(#clip0_354_213)">
<path d="M20.3172 36.9854H0.000186183V20.0904C-0.0474022 17.8269 0.700249 15.6181 2.11362 13.8466C3.57104 12.0518 5.58503 10.7908 7.83905 10.262L24.1169 6.08596V2.57107L34.3012 -0.0292969V3.5517C35.1919 3.33604 36.1055 3.22874 37.0221 3.23217C39.678 3.23217 42.0099 4.24834 44.0178 6.28063C44.9701 7.20002 45.7264 8.30179 46.2414 9.51986C46.7564 10.7379 47.0195 12.0472 47.0149 13.3692V30.2127L20.3172 36.9854ZM19.2126 35.8836V20.2006C19.236 19.0088 19.0112 17.8251 18.5524 16.7244C18.0935 15.6237 17.4106 14.63 16.5469 13.8062C15.6852 12.9553 14.6604 12.2864 13.5337 11.8396C12.4069 11.3928 11.2014 11.1773 9.9893 11.2059C8.81408 11.1753 7.64525 11.3879 6.55653 11.8304C5.46782 12.2729 4.48282 12.9357 3.6637 13.7768C2.83013 14.6232 2.17643 15.6288 1.74178 16.7332C1.30713 17.8377 1.10048 19.0183 1.13421 20.2043V35.8836H19.2126ZM13.859 22.1876L11.3406 23.194H6.85596L6.07908 22.1876V19.2494L6.85596 20.0941H11.3406L13.859 19.2494V22.1876ZM45.8919 29.401V13.4426C45.8998 12.2483 45.6658 11.0646 45.2039 9.96269C44.7421 8.86074 44.0618 7.8632 43.2041 7.02988C42.3983 6.16249 41.4205 5.47167 40.3329 5.00126C39.2452 4.53085 38.0714 4.29112 36.8859 4.2973C36.0153 4.31795 35.1501 4.44123 34.3085 4.66458V9.29968L27.8099 11.081V24.7072L24.128 25.5739V7.3237L12.3457 10.3171C14.8789 11.0932 16.8426 12.3444 18.2369 14.0707C19.635 15.805 20.3755 17.9755 20.3282 20.2006V35.8836L45.8919 29.401Z" fill="#242629"/>
</g>
<defs>
<clipPath id="clip0_354_213">
<rect width="47" height="37" fill="white"/>
</clipPath>
</defs>
</svg>
