<svg width="60" height="37" viewBox="0 0 60 37" fill="none" xmlns="http://www.w3.org/2000/svg">
<path d="M33.292 37H12.7094L4.16721 29.9024C1.39004 27.5911 0.00144686 25.4533 0.00144686 23.4892C-0.0160984 22.8283 0.126144 22.1729 0.416285 21.5777C0.706425 20.9824 1.13606 20.4646 1.66929 20.0675C2.78286 19.2003 4.25268 18.7667 6.07874 18.7667C8.24328 18.7667 10.4535 19.4058 12.7094 20.6839V20.1127C12.6619 17.8505 13.4144 15.6431 14.8367 13.8731C16.2549 12.1153 18.1758 10.9244 20.5992 10.3004L36.9754 6.12389V2.60152L47.221 0V3.58275C48.1188 3.36852 49.0391 3.26125 49.9626 3.26322C52.6331 3.26322 54.9737 4.27883 56.9842 6.31007C58.9947 8.3413 60 10.703 60 13.3951V30.2345L33.292 37ZM30.068 35.8804L17.4971 25.4969C12.987 21.7867 9.2113 19.9316 6.17013 19.9316C4.68254 19.9316 3.47758 20.2427 2.55524 20.865C1.6329 21.4873 1.17256 22.3017 1.17425 23.3081C1.17425 25.1531 2.89962 27.4728 6.35035 30.2672L13.2298 35.8804H30.068ZM13.2958 27.6884L12.5038 28.5564H9.05899L6.43415 26.365L7.0104 25.3837L8.20605 26.297H9.98303L10.7192 25.5674L13.2958 27.6884ZM30.921 15.7777C28.968 12.8558 26.2551 11.3957 22.7824 11.3974C20.2015 11.3974 18.0649 12.236 16.3726 13.9134C14.6802 15.5907 13.834 17.7167 13.834 20.2914V21.3405C15.4251 22.332 16.935 23.4458 18.3501 24.6717L19.2513 25.4466L22.823 17.7804L30.921 15.7777ZM32.142 20.2738C32.1243 19.1023 31.8983 17.9432 31.4744 16.8495L23.6353 18.7667L20.2007 26.2065L24.3512 29.6508L26.1028 21.801L32.142 20.2738ZM58.8729 29.3992V13.4504C58.8729 10.9999 57.9709 8.86212 56.1668 7.03719C54.3627 5.21227 52.2473 4.2998 49.8204 4.2998C48.9416 4.31861 48.0681 4.4411 47.2184 4.66464V9.29654L40.6817 11.0779V24.6994L36.9729 25.5674V7.33409L25.1305 10.3231C27.6691 11.1014 29.6398 12.3526 31.0428 14.0769C32.4512 15.8095 33.1982 17.9788 33.1523 20.2033V35.8804L58.8729 29.3992ZM32.0252 31.797V21.5519L27.0243 22.7822L25.2955 30.4031L28.2225 32.7555L32.0252 31.797ZM32.0252 35.8804V32.8914L29.2607 33.5984L32.0252 35.8804Z" fill="#242629"/>
</svg>
