<svg width="109" height="19" viewBox="0 0 109 19" fill="none" xmlns="http://www.w3.org/2000/svg">
<path d="M1.49744 7.09442C2.19525 7.09442 2.73356 6.61592 2.73356 5.89817C2.73356 5.18042 2.19525 4.68198 1.49744 4.68198C0.799624 4.68198 0.28125 5.18042 0.28125 5.89817C0.28125 6.61592 0.799624 7.09442 1.49744 7.09442ZM1.49744 14.571C2.19525 14.571 2.73356 14.0925 2.73356 13.3747C2.73356 12.657 2.19525 12.1585 1.49744 12.1585C0.799624 12.1585 0.28125 12.657 0.28125 13.3747C0.28125 14.0925 0.799624 14.571 1.49744 14.571Z" fill="black"/>
<path d="M17.0695 14.4513V3.26642L20.2196 10.5835H21.6153L24.7455 3.26642V14.4513H26.3205V0.495117H24.3467L20.9573 8.50998L17.5281 0.495117H15.4945V14.4513H17.0695Z" fill="black"/>
<path d="M39.9802 9.72616C40.0001 9.48691 40.02 9.14798 40.02 8.98848C39.9403 5.97792 38.0662 4.16361 35.1952 4.16361C32.3242 4.16361 30.3703 6.27698 30.3703 9.36729C30.3703 12.4775 32.3641 14.571 35.4145 14.571C37.7671 14.571 39.4418 13.0757 39.8406 11.042H38.1858C37.8469 12.3579 36.7304 13.1155 35.2949 13.1155C33.3609 13.1155 32.1447 11.7598 32.0849 9.82585V9.72616H39.9802ZM35.2151 5.59911C36.9098 5.59911 38.106 6.57604 38.2655 8.33054H32.1846C32.3441 6.67573 33.7198 5.59911 35.2151 5.59911Z" fill="black"/>
<path d="M53.6342 4.16361C52.2984 4.16361 51.3215 4.78167 50.7233 5.71873C50.2648 4.78167 49.3078 4.16361 48.0916 4.16361C46.9352 4.16361 46.058 4.62217 45.5396 5.35986L45.4 4.28324H44.0243V14.4513H45.6592V8.19098C45.6592 6.73554 46.3969 5.69879 47.7128 5.69879C49.1483 5.69879 49.6667 6.69567 49.6667 7.95173V14.4513H51.3015V8.05142C51.3015 6.71561 52.0791 5.69879 53.4149 5.69879C54.671 5.69879 55.309 6.59598 55.309 7.95173V14.4513H56.9438V7.89192C56.9438 5.57917 55.6479 4.16361 53.6342 4.16361Z" fill="black"/>
<path d="M66.4705 4.16361C64.7559 4.16361 63.6593 4.98105 62.9815 5.91811L62.7621 4.28324H61.3466V18.4388H62.9815V12.8962C63.5995 13.8732 64.7559 14.571 66.4705 14.571C69.2817 14.571 71.3552 12.4775 71.3552 9.36729C71.3552 6.05767 69.2817 4.16361 66.4705 4.16361ZM66.311 13.1155C64.3173 13.1155 62.9615 11.5604 62.9615 9.32741C62.9615 7.15423 64.3173 5.61905 66.311 5.61905C68.3247 5.61905 69.6804 7.15423 69.6804 9.36729C69.6804 11.5803 68.3247 13.1155 66.311 13.1155Z" fill="black"/>
<path d="M79.9046 14.571C82.8753 14.571 84.9488 12.4576 84.9488 9.36729C84.9488 6.27698 82.8753 4.16361 79.9046 4.16361C76.9339 4.16361 74.8604 6.27698 74.8604 9.36729C74.8604 12.4576 76.9339 14.571 79.9046 14.571ZM79.9046 13.1155C77.8909 13.1155 76.5352 11.5405 76.5352 9.36729C76.5352 7.1941 77.8909 5.61905 79.9046 5.61905C81.9183 5.61905 83.274 7.1941 83.274 9.36729C83.274 11.5405 81.9183 13.1155 79.9046 13.1155Z" fill="black"/>
<path d="M93.508 14.571C96.4787 14.571 98.5522 12.4576 98.5522 9.36729C98.5522 6.27698 96.4787 4.16361 93.508 4.16361C90.5374 4.16361 88.4639 6.27698 88.4639 9.36729C88.4639 12.4576 90.5374 14.571 93.508 14.571ZM93.508 13.1155C91.4944 13.1155 90.1386 11.5405 90.1386 9.36729C90.1386 7.1941 91.4944 5.61905 93.508 5.61905C95.5217 5.61905 96.8775 7.1941 96.8775 9.36729C96.8775 11.5405 95.5217 13.1155 93.508 13.1155Z" fill="black"/>
<path d="M105.91 12.956V0.495117H101.205V1.99043H104.275V12.956H101.205V14.4513H109V12.956H105.91Z" fill="black"/>
</svg>
