<svg width="53" height="15" viewBox="0 0 53 15" fill="none" xmlns="http://www.w3.org/2000/svg">
<path d="M28.5751 12.9585V14.456H20.7686V12.9585H23.8431V5.77068H20.7686V4.27314H25.4807V12.9585H28.5751ZM23.424 1.23833C23.424 0.539228 23.9831 0 24.6822 0C25.3813 0 25.9205 0.539228 25.9205 1.23833C25.9205 1.97717 25.3813 2.49653 24.6822 2.49653C23.9831 2.49653 23.424 1.97717 23.424 1.23833Z" fill="black"/>
<path d="M39.9255 4.27344V5.87031H38.6077C36.2313 5.87031 35.5332 7.6876 35.5332 9.30434V12.9578H38.9672V14.4554H31.6195V12.9578H33.8956V5.77098H31.6195V4.27344H35.4528L35.5124 5.99045C35.9712 5.19202 36.8898 4.27344 38.8272 4.27344H39.9255Z" fill="black"/>
<path d="M42.4517 9.36589C42.4517 6.27148 44.5282 4.1543 47.5034 4.1543C50.4786 4.1543 52.5551 6.27053 52.5551 9.36589C52.5551 12.4612 50.4786 14.5775 47.5034 14.5775C44.5282 14.5775 42.4517 12.4612 42.4517 9.36589ZM50.8778 9.36589C50.8778 7.19006 49.5203 5.6121 47.5034 5.6121C45.4865 5.6121 44.1289 7.18911 44.1289 9.36589C44.1289 11.5427 45.4865 13.1197 47.5034 13.1197C49.5203 13.1197 50.8778 11.5427 50.8778 9.36589Z" fill="black"/>
<path d="M11.7913 14.4643L16.5355 0.416016H18.3424L13.5981 14.4643H11.7913Z" fill="black"/>
<path d="M0 14.4643L4.74426 0.416016H6.5502L1.80689 14.4643H0Z" fill="black"/>
<path d="M11.8544 6.69141H6.99757L6.49146 8.18895H11.3483L11.8544 6.69141Z" fill="black"/>
</svg>
